<?xml version="1.0" ?><svg id="Layer_1" style="enable-background:new 0 0 65 65;" version="1.1" viewBox="0 0 65 65" xml:space="preserve" xmlns="http://www.w3.org/2000/svg" xmlns:xlink="http://www.w3.org/1999/xlink"><style type="text/css">
	.st0{fill:#FFFFFF;}
</style><g><path class="st0" d="M9.5,48.8c-0.4,0-0.8,0.3-0.8,0.8v14c0,0.4,0.3,0.8,0.8,0.8s0.8-0.3,0.8-0.8v-14C10.3,49.1,9.9,48.8,9.5,48.8z   "/><path class="st0" d="M9.5,43.8c-0.4,0-0.8,0.3-0.8,0.8v2c0,0.4,0.3,0.8,0.8,0.8s0.8-0.3,0.8-0.8v-2C10.3,44.1,9.9,43.8,9.5,43.8z"/><path class="st0" d="M60.3,4.5c0-0.4-0.3-0.8-0.8-0.8h-1.3V2.5c0-0.4-0.3-0.8-0.8-0.8s-0.8,0.3-0.8,0.8v1.3h-1.3   c-0.4,0-0.8,0.3-0.8,0.8s0.3,0.8,0.8,0.8h1.3v1.3c0,0.4,0.3,0.8,0.8,0.8s0.8-0.3,0.8-0.8V5.3h1.3C59.9,5.3,60.3,4.9,60.3,4.5z"/><path class="st0" d="M5.5,38.8H4.3v-1.3c0-0.4-0.3-0.8-0.8-0.8s-0.8,0.3-0.8,0.8v1.3H1.5c-0.4,0-0.8,0.3-0.8,0.8s0.3,0.8,0.8,0.8   h1.3v1.3c0,0.4,0.3,0.8,0.8,0.8s0.8-0.3,0.8-0.8v-1.3h1.3c0.4,0,0.8-0.3,0.8-0.8S5.9,38.8,5.5,38.8z"/><path class="st0" d="M25.5,6.3h14c0.4,0,0.8-0.3,0.8-0.8s-0.3-0.8-0.8-0.8h-14c-0.4,0-0.8,0.3-0.8,0.8S25.1,6.3,25.5,6.3z"/><path class="st0" d="M33.5,54.8c-1.5,0-2.8,1.2-2.8,2.8s1.2,2.8,2.8,2.8s2.8-1.2,2.8-2.8S35,54.8,33.5,54.8z M33.5,58.8   c-0.7,0-1.3-0.6-1.3-1.3s0.6-1.3,1.3-1.3s1.3,0.6,1.3,1.3S34.2,58.8,33.5,58.8z"/><path class="st0" d="M56.4,14.7c-0.5-0.3-1.2-0.3-1.7,0l-16.3,9.1h-9.8c-0.4,0-0.8,0.3-0.8,0.8v10c0,0.4,0.3,0.8,0.8,0.8h9.8   l16.3,9.1c0,0,0,0,0,0c0.3,0.1,0.6,0.2,0.9,0.2c0.3,0,0.6-0.1,0.9-0.2c0.5-0.3,0.9-0.9,0.9-1.5V16.2C57.3,15.6,56.9,15,56.4,14.7z    M29.3,25.3h8.5v8.5h-8.5V25.3z M55.8,42.8c0,0.1-0.1,0.2-0.1,0.2c0,0-0.1,0.1-0.2,0v0l-16.1-9v-9.1l16.1-9c0.1-0.1,0.2,0,0.2,0   c0,0,0.1,0.1,0.1,0.2V42.8z"/><path class="st0" d="M50.5,44.4c-0.4,0-0.8,0.3-0.8,0.8v5.6H15.3V10.3h34.5v3.6c0,0.4,0.3,0.8,0.8,0.8s0.8-0.3,0.8-0.8V1.5   c0-0.4-0.3-0.8-0.8-0.8h-36c-0.4,0-0.8,0.3-0.8,0.8v62c0,0.4,0.3,0.8,0.8,0.8h36c0.4,0,0.8-0.3,0.8-0.8V45.2   C51.3,44.8,50.9,44.4,50.5,44.4z M49.8,2.3v6.5H15.3V2.3H49.8z M15.3,62.8V52.3h34.5v10.5H15.3z"/><path class="st0" d="M31.8,38.2c-0.2-0.4-0.6-0.6-1-0.4c-0.4,0.2-0.6,0.6-0.4,1l2.4,6c0.1,0.3,0.4,0.5,0.7,0.5h6   c0.2,0,0.5-0.1,0.6-0.3s0.2-0.5,0.1-0.7l-2.4-6c-0.2-0.4-0.6-0.6-1-0.4c-0.4,0.2-0.6,0.6-0.4,1l2,5H34L31.8,38.2z"/><path class="st0" d="M60.8,24.2c-0.4-0.2-0.8,0-1,0.4c-0.2,0.4,0,0.8,0.4,1c1.5,0.7,2.6,2.2,2.6,3.9s-1,3.2-2.6,3.9   c-0.4,0.2-0.6,0.6-0.4,1c0.1,0.3,0.4,0.4,0.7,0.4c0.1,0,0.2,0,0.3-0.1c2.1-0.9,3.4-3,3.4-5.3C64.3,27.2,62.9,25.2,60.8,24.2z"/></g></svg>