<svg id="Layer_1" fill="white" data-name="Layer 1" xmlns="http://www.w3.org/2000/svg" viewBox="0 0 96 96"><path d="M80.47,80.62H15.53A6.43,6.43,0,0,1,9.11,74.2V30.38A6.43,6.43,0,0,1,15.53,24h9.28a1,1,0,0,1,0,2H15.53a4.42,4.42,0,0,0-4.42,4.42V74.2a4.42,4.42,0,0,0,4.42,4.42H80.47a4.42,4.42,0,0,0,4.42-4.42V30.38A4.42,4.42,0,0,0,80.47,26H71.19a1,1,0,0,1,0-2h9.28a6.43,6.43,0,0,1,6.42,6.42V74.2A6.43,6.43,0,0,1,80.47,80.62Z"/><path d="M80.47,76.42H15.53a2.23,2.23,0,0,1-2.22-2.22V30.38a2.22,2.22,0,0,1,2.22-2.22h9.28a1,1,0,0,1,0,2H15.53a.22.22,0,0,0-.22.22V74.2a.22.22,0,0,0,.22.22H80.47a.22.22,0,0,0,.22-.22V30.38a.22.22,0,0,0-.22-.22H71.19a1,1,0,0,1,0-2h9.28a2.22,2.22,0,0,1,2.22,2.22V74.2A2.23,2.23,0,0,1,80.47,76.42Z"/><path d="M87.51,86.12h-79A6.5,6.5,0,0,1,2,79.63a1,1,0,0,1,1-1H93a1,1,0,0,1,1,1A6.5,6.5,0,0,1,87.51,86.12ZM4.11,80.63a4.51,4.51,0,0,0,4.38,3.49h79a4.51,4.51,0,0,0,4.38-3.49Z"/><path d="M71.19,68.55H24.81a1,1,0,0,1-1-1V10.88a1,1,0,0,1,1-1H71.19a1,1,0,0,1,1,1V67.55A1,1,0,0,1,71.19,68.55Zm-45.38-2H70.19V11.88H25.81Z"/><path d="M64,21.46H32a1,1,0,0,1,0-2H64a1,1,0,0,1,0,2Z"/><path d="M64,30.84H32a1,1,0,0,1,0-2H64a1,1,0,0,1,0,2Z"/><path d="M50.29,40.22H32a1,1,0,1,1,0-2h18.3a1,1,0,0,1,0,2Z"/><path d="M40.51,49.59H32a1,1,0,1,1,0-2h8.52a1,1,0,0,1,0,2Z"/><path d="M64,59H32a1,1,0,1,1,0-2H64a1,1,0,0,1,0,2Z"/><path d="M37.92,59a1,1,0,0,1-1-1.21l1.86-8.64a1.06,1.06,0,0,1,.27-.5L52.14,35.55a5.8,5.8,0,0,1,8.2,8.2L47.27,56.82a1,1,0,0,1-.49.27L38.13,59Zm2.78-9.15-1.48,6.85,6.85-1.47L58.92,42.34a3.8,3.8,0,0,0,0-5.37,3.88,3.88,0,0,0-5.37,0Zm5.87,6.29h0Z"/><path d="M56.55,47.13a1,1,0,0,1-.71-.3l-6.78-6.78a1,1,0,0,1,0-1.41,1,1,0,0,1,1.41,0l6.79,6.78a1,1,0,0,1,0,1.41A1,1,0,0,1,56.55,47.13Z"/><path d="M46.57,57.11a1,1,0,0,1-.71-.29L39.07,50a1,1,0,0,1,0-1.41,1,1,0,0,1,1.42,0l6.78,6.78a1,1,0,0,1-.7,1.71Z"/></svg>